<svg id="Доставка" xmlns="http://www.w3.org/2000/svg" width="117.03" height="132.563" viewBox="0 0 117.03 132.563">
  <metadata><?xpacket begin="﻿" id="W5M0MpCehiHzreSzNTczkc9d"?>
<x:xmpmeta xmlns:x="adobe:ns:meta/" x:xmptk="Adobe XMP Core 5.6-c140 79.160451, 2017/05/06-01:08:21        ">
   <rdf:RDF xmlns:rdf="http://www.w3.org/1999/02/22-rdf-syntax-ns#">
      <rdf:Description rdf:about=""/>
   </rdf:RDF>
</x:xmpmeta>                   
<?xpacket end="w"?></metadata>
<defs>
    <style>
      .cls-1 {
        fill: #f18217;
      }

      .cls-1, .cls-2 {
        fill-rule: evenodd;
      }
    </style>
  </defs>
  <path class="cls-1" d="M1469.28,188c19.54-1.882,38.35-6.778,40.5-17.571a14.129,14.129,0,0,0,0-5.146c-1.09-5.972-16.31-9.5-21.63-12.468,1.73-2.071,5.87-2.244,5.34-5.178-0.56-3.084-4.01-3.621-7.74-3.88,8.74-6.229,13.4-14.045,13.31-24.192-0.07-7.744-4.18-13.747-9-19.366-7.32-8.532-23.7-11.177-30.58-4.2a98.22,98.22,0,0,1,4.5-28.625c0.68-2.1,2.81-2.151,4.38-2.829,3.1-1.343-1.73-8.7,1.72-5.88-4.97-4.054-34.02-3.635-37.16,0-1.97,2.27-1.38,4.537,1.72,5.88,1.56,0.678,3.7.733,4.38,2.829A98.22,98.22,0,0,1,1443.52,96c-6.89-6.977-23.26-4.332-30.59,4.2-4.82,5.619-8.92,11.622-8.99,19.366-0.09,10.147,4.57,17.963,13.3,24.192-3.73.259-7.17,0.8-7.73,3.88-0.54,2.934,3.61,3.107,5.34,5.178-5.32,2.971-20.54,6.5-21.63,12.468a14.585,14.585,0,0,0,0,5.146c2.55,10.766,25.72,17.371,40.5,17.571C1438.52,188.064,1461.89,188.711,1469.28,188Zm-25.76-78.468c-0.27,6.318-1.3,12.538-2.12,18.794-1.37,10.353-7.73,16.168-17.16,20.047,2.7-5.334,1.51-9.762-2.86-12-7.63-3.891-11.53-13.81-8.44-22.539,3.59-10.128,10.96-14.283,20.23-13.679,0.8,0.052,1.33.037,1.1,1.267-1.15,6.1.92,8.03,6.97,6.3,2.08-.6,2.36-0.015,2.28,1.808h0Zm38.1,26.846c-4.37,2.233-5.56,6.661-2.86,12-9.44-3.879-15.8-9.694-17.16-20.047-0.83-6.256-1.85-12.476-2.13-18.794-0.07-1.823.2-2.406,2.29-1.808,6.04,1.733,8.11-.193,6.97-6.3-0.23-1.23.3-1.215,1.09-1.267,9.27-.6,16.65,3.551,20.24,13.679,3.09,8.729-.82,18.648-8.44,22.539h0Z" transform="translate(-1393.03 -55.781)"/>
  <path id="Доставка-2" data-name="Доставка" class="cls-2" d="M1421.72,171.553h-1.66V159.687h-9.31l-0.41,6.27a14.924,14.924,0,0,1-.64,3.472,4.7,4.7,0,0,1-1.34,2.124h-1.08l0.16,5.839h2.77v-3.486h8.58v3.5h2.7Zm-8.43-5.752,0.24-3.741h3.6v9.493h-5.42a12.509,12.509,0,0,0,1.58-5.752h0Zm9.34,2.851a5.617,5.617,0,0,0,1.37,3.985,5.263,5.263,0,0,0,7.29,0,5.543,5.543,0,0,0,1.35-3.9l-0.02-.722a5.2,5.2,0,0,0-1.51-3.555,4.8,4.8,0,0,0-3.49-1.309,5.092,5.092,0,0,0-2.64.674,4.391,4.391,0,0,0-1.74,1.905,6.18,6.18,0,0,0-.61,2.8v0.127Zm3.39-2.425a2.006,2.006,0,0,1,3.22,0,3.865,3.865,0,0,1,.58,2.288,4.276,4.276,0,0,1-.58,2.519,2.032,2.032,0,0,1-3.22-.01,3.932,3.932,0,0,1-.56-2.3A4.381,4.381,0,0,1,1426.02,166.227Zm11.24,4.885a4.233,4.233,0,0,1-.5-2.347v-0.294a4.118,4.118,0,0,1,.51-2.332,1.882,1.882,0,0,1,2.77-.207,1.894,1.894,0,0,1,.51,1.334h2.65a3.959,3.959,0,0,0-1.22-3,4.432,4.432,0,0,0-3.18-1.124,4.531,4.531,0,0,0-3.56,1.455,5.618,5.618,0,0,0-1.3,3.9v0.186a5.711,5.711,0,0,0,1.31,3.979,4.576,4.576,0,0,0,3.57,1.44,4.967,4.967,0,0,0,2.22-.493,3.864,3.864,0,0,0,1.57-1.386,3.606,3.606,0,0,0,.59-1.968h-2.65a1.481,1.481,0,0,1-.51,1.142,1.816,1.816,0,0,1-1.26.43A1.727,1.727,0,0,1,1437.26,171.112Zm16.32-7.772h-9.55v2.275h3.33v8.291h2.83v-8.291h3.39V163.34Zm10.23,10.566V173.74a5.147,5.147,0,0,1-.42-2.275v-4.58a3.444,3.444,0,0,0-1.14-2.759,4.624,4.624,0,0,0-3.1-.982,5.867,5.867,0,0,0-2.33.445,3.758,3.758,0,0,0-1.6,1.225,2.826,2.826,0,0,0-.57,1.7h2.83a1.159,1.159,0,0,1,.4-0.938,1.677,1.677,0,0,1,1.12-.342,1.487,1.487,0,0,1,1.19.44,1.741,1.741,0,0,1,.37,1.172v0.6h-1.3a6.115,6.115,0,0,0-3.59.908,2.967,2.967,0,0,0-1.25,2.578,2.89,2.89,0,0,0,1.02,2.266,3.751,3.751,0,0,0,2.57.9,3.408,3.408,0,0,0,2.67-1.142,3.179,3.179,0,0,0,.28.947h2.85Zm-6.2-2.305a1.152,1.152,0,0,1-.37-0.869l0.01-.166c0.09-.976.84-1.465,2.26-1.465h1.05v1.817a1.843,1.843,0,0,1-.78.747,2.414,2.414,0,0,1-1.15.278A1.456,1.456,0,0,1,1457.61,171.6Zm13.23,2.305a5.6,5.6,0,0,0,3.21-.771,2.564,2.564,0,0,0,1.11-2.246,2.047,2.047,0,0,0-.65-1.548,3.362,3.362,0,0,0-1.78-.845,3.016,3.016,0,0,0,1.41-.894,2.006,2.006,0,0,0,.48-1.313,2.461,2.461,0,0,0-1.15-2.188,6.008,6.008,0,0,0-3.31-.761h-4.41v10.566h5.09Zm0.07-4.385c0.95,0.013,1.43.375,1.43,1.084s-0.5,1.045-1.49,1.045h-2.28v-2.129h2.34Zm-2.34-3.906h1.59a2.464,2.464,0,0,1,1.24.243,0.872,0.872,0,0,1,.4.816c0,0.622-.49.94-1.48,0.953h-1.75v-2.012Zm14.76,8.291h3.76l-3.78-5.537,3.45-5.029h-3.56l-2.31,3.974h-1V163.34h-2.82v10.566h2.82v-3.9h1.13Zm13.79,0V173.74a5.026,5.026,0,0,1-.41-2.275v-4.58a3.45,3.45,0,0,0-1.15-2.759,4.624,4.624,0,0,0-3.1-.982,5.867,5.867,0,0,0-2.33.445,3.758,3.758,0,0,0-1.6,1.225,2.826,2.826,0,0,0-.57,1.7h2.83a1.159,1.159,0,0,1,.4-0.938,1.7,1.7,0,0,1,1.12-.342,1.487,1.487,0,0,1,1.19.44,1.741,1.741,0,0,1,.37,1.172v0.6h-1.3a6.137,6.137,0,0,0-3.59.908,2.991,2.991,0,0,0-1.25,2.578,2.89,2.89,0,0,0,1.02,2.266,3.751,3.751,0,0,0,2.57.9,3.408,3.408,0,0,0,2.67-1.142,3.179,3.179,0,0,0,.28.947h2.85Zm-6.2-2.305a1.152,1.152,0,0,1-.37-0.869l0.01-.166c0.09-.976.85-1.465,2.26-1.465h1.05v1.817a1.843,1.843,0,0,1-.78.747,2.414,2.414,0,0,1-1.15.278A1.456,1.456,0,0,1,1490.92,171.6Z" transform="translate(-1393.03 -55.781)"/>
</svg>
