<svg xmlns="http://www.w3.org/2000/svg" width="162" height="49" viewBox="0 0 162 49">
  <metadata><?xpacket begin="﻿" id="W5M0MpCehiHzreSzNTczkc9d"?>
<x:xmpmeta xmlns:x="adobe:ns:meta/" x:xmptk="Adobe XMP Core 5.6-c140 79.160451, 2017/05/06-01:08:21        ">
   <rdf:RDF xmlns:rdf="http://www.w3.org/1999/02/22-rdf-syntax-ns#">
      <rdf:Description rdf:about=""/>
   </rdf:RDF>
</x:xmpmeta>
                                                                                                    
                                                                                                    
                                                                                                    
                                                                                                    
                                                                                                    
                                                                                                    
                                                                                                    
                                                                                                    
                                                                                                    
                                                                                                    
                                                                                                    
                                                                                                    
                                                                                                    
                                                                                                    
                                                                                                    
                                                                                                    
                                                                                                    
                                                                                                    
                                                                                                    
                                                                                                    
                           
<?xpacket end="w"?></metadata>
<defs>
    <style>
      .cls-1 {
        fill: #fff;
        fill-rule: evenodd;
      }
    </style>
  </defs>
  <path class="cls-1" d="M406.724,20.247a10.49,10.49,0,0,1-.987,4.295,4.291,4.291,0,0,0-1.913-1.994,6.966,6.966,0,0,0-3.641-.889q-4.2,0-6.048,1.657t-1.852,5.951a5.029,5.029,0,0,0,2.037,4.356,8.2,8.2,0,0,0,4.937,1.473,12.878,12.878,0,0,0,1.975-.153,6.3,6.3,0,0,0,1.759-.522,3.164,3.164,0,0,0,1.234-1.012,2.822,2.822,0,0,0,.463-1.687q0-1.533-2.284-2.455a10.205,10.205,0,0,1,1.975-.306,4.889,4.889,0,0,1,3.8,1.6,6.814,6.814,0,0,1,1.45,4.724q-1.421,7.179-8.023,7.179a14.652,14.652,0,0,1-5.431-.89,8.463,8.463,0,0,1-3.579-2.607,10.912,10.912,0,0,1-1.975-4.142A22.559,22.559,0,0,1,390,29.266q0-1.288.123-2.883t0.34-3.191a27.717,27.717,0,0,1,.586-3.068,15.7,15.7,0,0,1,.864-2.577,5.76,5.76,0,0,1,1.512-1.35,13.8,13.8,0,0,1,2.037-1.074,14.062,14.062,0,0,1,2.221-.736,8.86,8.86,0,0,1,2.068-.276,10.8,10.8,0,0,1,4.134.736,3.394,3.394,0,0,1,2.161,1.9A10.491,10.491,0,0,1,406.724,20.247ZM421.6,32.824l2.716-1.9v4.172a4.07,4.07,0,0,0,1.234,3.006,1.755,1.755,0,0,0,1.3.491,13.222,13.222,0,0,0,3.672-.583,17.981,17.981,0,0,0,4.165-1.871q-0.309,3.559-2.653,5a10.9,10.9,0,0,1-5.8,1.441h-0.247c-0.617,0-1.194-.021-1.728-0.061a3.2,3.2,0,0,1-1.451-.46,3.252,3.252,0,0,1-1.11-1.227,7.241,7.241,0,0,1-.71-2.3,13.642,13.642,0,0,1-1.419,1.442q-0.741.644-1.543,1.258a4.647,4.647,0,0,1-3.086.982,2.7,2.7,0,0,1-2.037-.706,3.45,3.45,0,0,1-.679-2.423,7.387,7.387,0,0,1,1.543-4.478,9.307,9.307,0,0,1,5.616-3.927A1.932,1.932,0,0,1,421.6,32.824ZM420.425,35.4a2.576,2.576,0,0,0,.555-1.411,0.6,0.6,0,0,0-.679-0.675,3.316,3.316,0,0,0-1.173.306,3.754,3.754,0,0,0-1.265.614,7.005,7.005,0,0,0-1.3,1.166,8.67,8.67,0,0,0-1.018,1.441,2.964,2.964,0,0,0-.432,1.442,0.581,0.581,0,0,0,.617.491,2.157,2.157,0,0,0,.679-0.122A10.367,10.367,0,0,0,420.425,35.4Zm18.946-2.147a5.082,5.082,0,0,0-.124.859v0.736q0,0.736.432,0.736,0.678-.736,1.42-1.5t1.6-1.687a11.663,11.663,0,0,1,1.666-1.687,3.024,3.024,0,0,1,1.914-.828,1.315,1.315,0,0,1,1.172.461,2.636,2.636,0,0,1,.309,1.441V37.3a1.245,1.245,0,0,0,.4,1.043,2.382,2.382,0,0,0,1.08.184h1.173a21.468,21.468,0,0,0,4.937-.552,15.845,15.845,0,0,0,4.5-1.84,13.953,13.953,0,0,1-.278,1.657,4.638,4.638,0,0,1-.771,1.472,5.033,5.033,0,0,1-1.667,1.626,7.708,7.708,0,0,1-2.129.859,14.7,14.7,0,0,1-2.345.368q-1.2.092-2.252,0.092a12.143,12.143,0,0,1-1.543-.123,6.416,6.416,0,0,1-1.759-.491,4.491,4.491,0,0,1-1.45-1.012,2.336,2.336,0,0,1-.618-1.687,3.141,3.141,0,0,1,.062-0.522c0.041-.224.1-0.746,0.186-1.564V36.628a2.377,2.377,0,0,0-.248-0.92,1.974,1.974,0,0,0-1.234.92q-0.432.492-1.3,1.534t-2.16,2.7a2.474,2.474,0,0,1-1.975.858c-0.37-.285-0.709-0.552-1.018-0.8a1.075,1.075,0,0,1-.463-0.858L437.4,29.7l3.7-3.313Zm12.96-1.841a1.385,1.385,0,0,1-.371-0.921,0.928,0.928,0,0,1,.371-0.736,0.983,0.983,0,0,1,.37-0.246c0.123-.04.267-0.081,0.432-0.122a1.339,1.339,0,0,1,.8.368,0.928,0.928,0,0,1,.371.736,1.385,1.385,0,0,1-.371.921,1.569,1.569,0,0,1-.74.245H453.01A1.065,1.065,0,0,1,452.331,31.414Zm15.181-2.945a1.61,1.61,0,0,1,1.574.767,3.59,3.59,0,0,1,.4,1.687,4.489,4.489,0,0,1-.432,1.78q-0.433.983-.957,1.933t-0.957,1.81a3.344,3.344,0,0,0-.432,1.411,1.425,1.425,0,0,0,.217.92,0.812,0.812,0,0,0,.647.245,22.432,22.432,0,0,0,4.846-.552,7.553,7.553,0,0,0,3.918-2.024v0.368a4.155,4.155,0,0,1-1.142,3.129,7.253,7.253,0,0,1-2.808,1.657,14.356,14.356,0,0,1-3.61.675q-1.944.123-3.61,0.123a13.974,13.974,0,0,1-1.759-.092,1.892,1.892,0,0,1-1.173-.583,3.049,3.049,0,0,1-.679-1.441,13.106,13.106,0,0,1-.216-2.73,8.966,8.966,0,0,1,1.636-5.277,12.6,12.6,0,0,1,3.919-3.681A3.751,3.751,0,0,1,467.512,28.468ZM464.3,37.027a0.581,0.581,0,0,0,.246.153,1.033,1.033,0,0,0,.556-0.46,6.918,6.918,0,0,0,.71-1.1A10.978,10.978,0,0,0,466.4,34.3a3.5,3.5,0,0,0,.247-1.166,0.6,0.6,0,0,0-.618-0.736,1.085,1.085,0,0,0-.894.429,3.515,3.515,0,0,0-.556,1.074,7.133,7.133,0,0,0-.308,1.35c-0.062.471-.114,0.89-0.155,1.258A0.641,0.641,0,0,0,464.3,37.027ZM484.236,30.8a4.6,4.6,0,0,1,2.346-.736,3.779,3.779,0,0,1,1.912.46,3.464,3.464,0,0,1,1.265,1.227,5.788,5.788,0,0,1,.679,1.749,9.4,9.4,0,0,1,.216,2.024,7.935,7.935,0,0,1-.308,2.056,8.43,8.43,0,0,1-.895,2.117,5.747,5.747,0,0,1-1.419,1.626,3,3,0,0,1-1.882.644,3.229,3.229,0,0,1-2.1-1.012,10.721,10.721,0,0,1-1.788-2.055l0.987-1.1a11.2,11.2,0,0,0,2.5.8q1.079,0.185,1.2.184a1.6,1.6,0,0,0,1.359-.889,3.582,3.582,0,0,0,.555-1.933,3.019,3.019,0,0,0-.679-2.025,2.05,2.05,0,0,0-1.6-.8,2.875,2.875,0,0,0-1.667.706,9.5,9.5,0,0,0-1.7,1.687,13.845,13.845,0,0,0-1.327,2.025,3.873,3.873,0,0,0-.555,1.657c-0.577,3.271-.262,2.509-0.715,5.373a38.877,38.877,0,0,1-1.882,7.516,12.988,12.988,0,0,1-3.177,5.061A7.659,7.659,0,0,1,470.13,59a7.781,7.781,0,0,1-5.154-1.534,5.528,5.528,0,0,1-1.82-4.479,5.912,5.912,0,0,1,.37-2.209,4.383,4.383,0,0,0,.926,1.718,6.979,6.979,0,0,0,1.6,1.38,7.944,7.944,0,0,0,4.135,1.2,6.486,6.486,0,0,0,3.58-.951,6.235,6.235,0,0,0,2.468-2.485,19.384,19.384,0,0,0,1.949-7.121c0.046-1.166.062-2.158,0.062-2.976V28.9l4.074,3.252A12.28,12.28,0,0,1,484.236,30.8Zm17.835,2.024,2.715-1.9v4.172a4.071,4.071,0,0,0,1.235,3.006,1.755,1.755,0,0,0,1.3.491,13.21,13.21,0,0,0,3.671-.583,17.969,17.969,0,0,0,4.166-1.871q-0.309,3.559-2.653,5a10.9,10.9,0,0,1-5.8,1.441h-0.246c-0.617,0-1.194-.021-1.728-0.061a3.2,3.2,0,0,1-1.451-.46,3.27,3.27,0,0,1-1.111-1.227,7.269,7.269,0,0,1-.709-2.3,13.65,13.65,0,0,1-1.42,1.442c-0.493.429-1.009,0.849-1.542,1.258a4.649,4.649,0,0,1-3.086.982,2.7,2.7,0,0,1-2.036-.706,3.445,3.445,0,0,1-.68-2.423,7.387,7.387,0,0,1,1.543-4.478,9.307,9.307,0,0,1,5.617-3.927A1.932,1.932,0,0,1,502.071,32.824ZM500.9,35.4a2.584,2.584,0,0,0,.555-1.411,0.6,0.6,0,0,0-.679-0.675,3.306,3.306,0,0,0-1.172.306,3.749,3.749,0,0,0-1.266.614,6.973,6.973,0,0,0-1.3,1.166,8.729,8.729,0,0,0-1.018,1.441,2.964,2.964,0,0,0-.432,1.442,0.581,0.581,0,0,0,.617.491,2.157,2.157,0,0,0,.679-0.122A10.367,10.367,0,0,0,500.9,35.4Zm24.438-21.535a9.389,9.389,0,0,1,1.049,4.785,22.286,22.286,0,0,1-.4,3.927,12.954,12.954,0,0,1-1.388,3.988l-0.185.307q-0.371.676-.926,1.81t-1.049,2.362q-0.5,1.228-.865,2.454a7.463,7.463,0,0,0-.369,2.086,3.727,3.727,0,0,0,.555,2.117,1.57,1.57,0,0,0,1.3.828A1.174,1.174,0,0,0,524.2,37.7a4.032,4.032,0,0,0,.339-1.5,3.073,3.073,0,0,0-.617-1.657,10.837,10.837,0,0,0-1.358-1.657l1.111-2.393,3.209,2.147,1.852-1.35a3.155,3.155,0,0,0,.431.736,1.145,1.145,0,0,1,.247.737,2.1,2.1,0,0,1-.216.8,2.315,2.315,0,0,0-.216.613,2.828,2.828,0,0,0-1.512.828,3.482,3.482,0,0,0-.4,1.994,7.224,7.224,0,0,1-.247,1.81,5.834,5.834,0,0,1-.771,1.749,4.526,4.526,0,0,1-1.327,1.319,3.439,3.439,0,0,1-1.913.521,3.317,3.317,0,0,1-.988-0.154,2.574,2.574,0,0,1-1.018-.675,5.494,5.494,0,0,1-1.018-1.6,15.8,15.8,0,0,1-.926-2.914l-2.469.368a6.45,6.45,0,0,0,1.142-1.748q0.339-.828.895-2.546a16.3,16.3,0,0,0,.525-2.424q0.214-1.44.4-3.068t0.4-3.251a28.941,28.941,0,0,1,.525-2.915q0.245-.981.709-2.331a21.934,21.934,0,0,1,1.05-2.547,8.809,8.809,0,0,1,1.327-2.025,2.055,2.055,0,0,1,1.48-.828Zm-3.023,6.626a5.6,5.6,0,0,0-.4,1.657q-0.155,1.166-.309,2.485t-0.246,2.607q-0.093,1.289-.154,2.025a1.583,1.583,0,0,0,.956-1.1,16.056,16.056,0,0,0,.926-2.546q0.4-1.441.678-2.792a11.072,11.072,0,0,0,.278-1.9q0-1.349-.74-1.534A1.663,1.663,0,0,0,522.314,20.492ZM536.322,10l-2.1,26.934a0.924,0.924,0,0,0,.864,1.1,2.532,2.532,0,0,0,2-1.166,12.911,12.911,0,0,0,1.574-2.73,30.981,30.981,0,0,0,1.173-3.16q0.493-1.595.864-2.515a0.891,0.891,0,0,1,.74-0.245c0.205,0,.309.266,0.309,0.8a35.466,35.466,0,0,0-.987,6.258,3.813,3.813,0,0,0,.832,2.454,2.344,2.344,0,0,0,1.821,1.043,20.727,20.727,0,0,0,4.5-.521A10.535,10.535,0,0,0,552,36.444l-0.062.429a6.5,6.5,0,0,1-.555,1.841,5.849,5.849,0,0,1-1.851,1.779,13.537,13.537,0,0,1-6.11,1.35q-0.864,0-1.481-.062a2.011,2.011,0,0,1-1.08-.429,3.926,3.926,0,0,1-.895-1.1,13.225,13.225,0,0,1-.926-2.086q-2.776,3.927-4.32,3.926a1.493,1.493,0,0,1-1.173-.582,5.008,5.008,0,0,1-.833-1.469,9.074,9.074,0,0,1-.493-2.021,16.353,16.353,0,0,1-.154-2.234V12.635L534.285,10h2.037Z" transform="translate(-390 -10)"/>
</svg>
