<?xml version="1.0" encoding="utf-8"?>
<!-- Generator: Adobe Illustrator 22.1.0, SVG Export Plug-In . SVG Version: 6.00 Build 0)  -->
<svg version="1.1" id="Layer_1" xmlns="http://www.w3.org/2000/svg" xmlns:xlink="http://www.w3.org/1999/xlink" x="0px" y="0px"
	 viewBox="0 0 250 250" style="enable-background:new 0 0 250 250;" xml:space="preserve">
<style type="text/css">
	.st0{fill:#F18217;}
	.st1{fill:#FFFFFF;}
	.st2{enable-background:new    ;}
</style>
<path class="st0" d="M0,125c0,69.1,55.9,125,125,125s125-55.9,125-125S194,0,125,0C55.9,0,0,55.9,0,125"/>
<path class="st1" d="M125,10.1L125,10.1C61.6,10.1,10.1,61.6,10.1,125S61.6,239.9,125,239.9S239.9,188.4,239.9,125
	S188.4,10.1,125,10.1 M125,242.2C60.3,242.2,7.8,189.7,7.8,125S60.3,7.8,125,7.8S242.2,60.3,242.2,125S189.7,242.2,125,242.2"/>
<path class="st1" d="M150.6,79.6c-0.1-1.4-0.5-2.8-0.9-4.2c-1.1-3.7-3.3-7-6.6-9.7c-1.8-1.5-1.9-3.4-1.9-5.3c0-0.6,0.4-1.1,1.1-1.5
	c0.4-0.3,0.9-0.5,1.4-0.8c3.7-1.7,7.1-3.9,7.1-7.7c0-0.6-0.3-1.8-0.4-2.4c-1.9-8.1-13.7-10.4-19.1-6.5c-0.1,0.1-0.3,0.1-0.7,0.2
	c0-2.2,0-4.4,0-6.5c0-0.7,0.6-0.6,1.1-0.7c1.4,0,2.9,0,4.3,0c0.9,0,1.3-0.2,1.2-1c-0.1-1.4,0-2.9,0-4.3h-24.4c0,1.4,0,2.9,0,4.3
	c0,0.8,0.3,1,1.2,1c1.4,0,2.7,0,4.1,0c0.9,0,1.2,0.2,1.2,1c0,7.8,0,15.6,0,23.4c0,0.9-0.6,1-1.4,1.2c-10.1,2.7-16.3,8.3-18.2,16.9
	c-2.4,10.6,6.2,21.1,18.5,23.8H131c9.8-2.7,18.4-10,19.3-18.5C150.4,81.7,150.6,80.3,150.6,79.6L150.6,79.6z M137.1,61.9
	c-2-0.7-3.9-1.5-6-1.9c-0.7-0.1-0.7-0.5-0.7-0.9c0-3.5,0-7.1,0-10.6c0-0.5,0.2-0.9,0.5-1.3c3.1-3,11-2.8,13.1,0.3
	c1.7,2.5,0.7,5.7-2.6,6.5c-3.6,0.9-4.4,1.5-4.4,5.2C137.1,60.1,137.1,60.9,137.1,61.9L137.1,61.9z"/>
<g class="st2">
	<path class="st1" d="M44.4,174.9c0,1.1-0.4,1.9-1.1,2.5c-0.7,0.6-1.7,0.9-3,0.9h-1.1v3.9h-1.7v-10.3h3c1.3,0,2.3,0.3,2.9,0.8
		S44.4,173.9,44.4,174.9z M39.3,176.9h0.9c0.9,0,1.5-0.2,1.9-0.5c0.4-0.3,0.6-0.8,0.6-1.4c0-0.6-0.2-1-0.5-1.3s-0.9-0.4-1.7-0.4
		h-1.2V176.9z"/>
	<path class="st1" d="M52.3,182.2h-5.9v-10.3h5.9v1.4h-4.2v2.8h3.9v1.4h-3.9v3.2h4.2V182.2z"/>
	<path class="st1" d="M59,173.1c-1,0-1.7,0.3-2.3,1c-0.6,0.7-0.8,1.6-0.8,2.9c0,1.3,0.3,2.2,0.8,2.9s1.3,1,2.3,1
		c0.4,0,0.9,0,1.3-0.1c0.4-0.1,0.8-0.2,1.3-0.3v1.5c-0.8,0.3-1.7,0.5-2.8,0.5c-1.5,0-2.7-0.5-3.5-1.4c-0.8-0.9-1.2-2.2-1.2-3.9
		c0-1.1,0.2-2,0.6-2.8s1-1.4,1.7-1.9c0.7-0.4,1.6-0.6,2.6-0.6c1.1,0,2,0.2,2.9,0.7l-0.6,1.4c-0.3-0.2-0.7-0.3-1.1-0.4
		C59.8,173.2,59.4,173.1,59,173.1z"/>
	<path class="st1" d="M67.3,182.2h-1.7v-8.9h-3v-1.5h7.8v1.5h-3V182.2z"/>
	<path class="st1" d="M81.2,177c0,1.7-0.4,3-1.3,3.9s-2,1.4-3.6,1.4c-1.6,0-2.8-0.5-3.6-1.4c-0.8-0.9-1.3-2.2-1.3-4s0.4-3,1.3-3.9
		c0.8-0.9,2-1.4,3.6-1.4c1.5,0,2.7,0.5,3.6,1.4S81.2,175.3,81.2,177z M73.3,177c0,1.3,0.3,2.2,0.8,2.9c0.5,0.7,1.3,1,2.3,1
		c1,0,1.8-0.3,2.3-1c0.5-0.7,0.8-1.6,0.8-2.9c0-1.3-0.3-2.2-0.8-2.9c-0.5-0.7-1.3-1-2.3-1c-1,0-1.8,0.3-2.3,1
		C73.5,174.7,73.3,175.7,73.3,177z"/>
	<path class="st1" d="M90.2,174.9c0,1.1-0.4,1.9-1.1,2.5c-0.7,0.6-1.7,0.9-3,0.9h-1.1v3.9h-1.7v-10.3h3c1.3,0,2.3,0.3,2.9,0.8
		S90.2,173.9,90.2,174.9z M85.1,176.9H86c0.9,0,1.5-0.2,1.9-0.5c0.4-0.3,0.6-0.8,0.6-1.4c0-0.6-0.2-1-0.5-1.3s-0.9-0.4-1.7-0.4h-1.2
		V176.9z"/>
	<path class="st1" d="M98.7,182.2l-1-2.9h-4l-1,2.9h-1.8l3.9-10.4h1.8l3.9,10.4H98.7z M97.2,177.8l-1-2.8c-0.1-0.2-0.2-0.5-0.3-0.9
		c-0.1-0.4-0.2-0.7-0.3-0.9c-0.1,0.6-0.3,1.2-0.6,1.9l-0.9,2.7H97.2z"/>
	<path class="st1" d="M110,182.2h-1.7v-4.7h-4.8v4.7h-1.7v-10.3h1.7v4.2h4.8v-4.2h1.7V182.2z"/>
	<path class="st1" d="M122.7,171.8v1.5h-4.5v8.9h-1.7v-10.3H122.7z"/>
	<path class="st1" d="M131.2,174.9c0,1.1-0.4,1.9-1.1,2.5c-0.7,0.6-1.7,0.9-3,0.9h-1.1v3.9h-1.7v-10.3h3c1.3,0,2.3,0.3,2.9,0.8
		C130.9,173.1,131.2,173.9,131.2,174.9z M126.1,176.9h0.9c0.9,0,1.5-0.2,1.9-0.5c0.4-0.3,0.6-0.8,0.6-1.4c0-0.6-0.2-1-0.5-1.3
		s-0.9-0.4-1.7-0.4h-1.2V176.9z"/>
	<path class="st1" d="M141.1,171.8l-3.3,7.4c-0.4,0.9-0.8,1.6-1.1,2c-0.3,0.4-0.7,0.7-1.2,0.9c-0.4,0.2-1,0.3-1.6,0.3
		c-0.5,0-1.1-0.1-1.5-0.2v-1.5c0.5,0.2,0.9,0.3,1.5,0.3c0.4,0,0.8-0.1,1.1-0.3c0.3-0.2,0.6-0.6,0.8-1.1l-3.8-7.6h1.8l2.5,5.2
		c0.2,0.5,0.4,0.8,0.4,1h0.1c0-0.1,0.1-0.3,0.2-0.6l2.3-5.6H141.1z"/>
	<path class="st1" d="M149.1,174.2c0,0.7-0.2,1.2-0.7,1.7c-0.4,0.4-1.1,0.7-1.9,0.8v0c0.9,0.1,1.6,0.4,2.1,0.8
		c0.5,0.4,0.7,1,0.7,1.7c0,1-0.4,1.7-1.1,2.3c-0.8,0.5-1.8,0.8-3.1,0.8c-1.4,0-2.5-0.2-3.3-0.6v-1.5c0.5,0.2,1,0.4,1.5,0.5
		c0.6,0.1,1.1,0.2,1.6,0.2c1.8,0,2.7-0.6,2.7-1.8c0-0.5-0.3-1-0.8-1.3c-0.5-0.3-1.4-0.4-2.4-0.4h-1.2v-1.4h1.2
		c2.1,0,3.1-0.5,3.1-1.6c0-0.4-0.2-0.8-0.5-1c-0.4-0.3-0.8-0.4-1.5-0.4c-0.5,0-1,0.1-1.4,0.2s-0.9,0.4-1.4,0.7l-0.8-1.1
		c1.1-0.7,2.3-1.1,3.8-1.1c1.1,0,2,0.2,2.6,0.7C148.8,172.8,149.1,173.4,149.1,174.2z"/>
	<path class="st1" d="M151.4,171.8h1.5v5.4c0,0.6,0,1.1,0,1.7s0,1-0.1,1.2h0.1l5.3-8.2h2v10.3h-1.6v-5.3c0-0.8,0-1.8,0.1-3h-0.1
		l-5.3,8.3h-2V171.8z"/>
	<path class="st1" d="M171.1,182.2h-1.7v-4.7h-4.8v4.7h-1.7v-10.3h1.7v4.2h4.8v-4.2h1.7V182.2z"/>
	<path class="st1" d="M178.2,173.1c-1,0-1.7,0.3-2.3,1c-0.6,0.7-0.8,1.6-0.8,2.9c0,1.3,0.3,2.2,0.8,2.9c0.5,0.7,1.3,1,2.3,1
		c0.4,0,0.9,0,1.3-0.1c0.4-0.1,0.8-0.2,1.3-0.3v1.5c-0.8,0.3-1.7,0.5-2.8,0.5c-1.5,0-2.7-0.5-3.5-1.4c-0.8-0.9-1.2-2.2-1.2-3.9
		c0-1.1,0.2-2,0.6-2.8c0.4-0.8,1-1.4,1.7-1.9c0.7-0.4,1.6-0.6,2.6-0.6c1.1,0,2,0.2,2.9,0.7l-0.6,1.4c-0.3-0.2-0.7-0.3-1.1-0.4
		S178.6,173.1,178.2,173.1z"/>
	<path class="st1" d="M190.9,182.2h-2l-4.3-5.2v5.2H183v-10.3h1.7v5l4.2-5h1.9l-4.2,5L190.9,182.2z"/>
	<path class="st1" d="M201.5,177c0,1.7-0.4,3-1.3,3.9c-0.8,0.9-2,1.4-3.6,1.4c-1.6,0-2.8-0.5-3.6-1.4c-0.8-0.9-1.3-2.2-1.3-4
		s0.4-3,1.3-3.9c0.8-0.9,2-1.4,3.6-1.4c1.5,0,2.7,0.5,3.6,1.4S201.5,175.3,201.5,177z M193.6,177c0,1.3,0.3,2.2,0.8,2.9
		c0.5,0.7,1.3,1,2.3,1c1,0,1.8-0.3,2.3-1c0.5-0.7,0.8-1.6,0.8-2.9c0-1.3-0.3-2.2-0.8-2.9c-0.5-0.7-1.3-1-2.3-1c-1,0-1.8,0.3-2.3,1
		C193.8,174.7,193.6,175.7,193.6,177z"/>
	<path class="st1" d="M203.7,171.8h1.5v5.4c0,0.6,0,1.1,0,1.7s0,1-0.1,1.2h0.1l5.3-8.2h2v10.3h-1.6v-5.3c0-0.8,0-1.8,0.1-3H211
		l-5.3,8.3h-2V171.8z M208.1,171c-1,0-1.7-0.2-2.2-0.5c-0.5-0.4-0.7-1-0.8-1.8h1.5c0,0.3,0.1,0.6,0.2,0.8c0.1,0.2,0.2,0.3,0.4,0.4
		c0.2,0.1,0.5,0.1,0.9,0.1c0.5,0,0.8-0.1,1.1-0.3c0.2-0.2,0.4-0.5,0.4-1h1.5c-0.1,0.8-0.4,1.4-0.9,1.8
		C209.8,170.8,209.1,171,208.1,171z"/>
</g>
<g class="st2">
	<path class="st1" d="M109.3,199.6h-2l-4.3-5.2v5.2h-1.7v-10.3h1.7v5l4.2-5h1.9l-4.2,5L109.3,199.6z"/>
	<path class="st1" d="M118.5,189.2l-3.3,7.4c-0.4,0.9-0.8,1.6-1.1,2c-0.3,0.4-0.7,0.7-1.2,0.9s-1,0.3-1.6,0.3
		c-0.5,0-1.1-0.1-1.5-0.2V198c0.5,0.2,0.9,0.3,1.5,0.3c0.4,0,0.8-0.1,1.1-0.3s0.6-0.6,0.8-1.1l-3.8-7.6h1.8l2.5,5.2
		c0.2,0.5,0.4,0.8,0.4,1h0.1c0-0.1,0.1-0.3,0.2-0.6l2.3-5.6H118.5z"/>
	<path class="st1" d="M127.5,199.6h-1.9l-2.6-4.2l-2.6,4.2h-1.8l3.4-5.4l-3.2-5h1.9l2.4,3.9l2.4-3.9h1.8l-3.2,5L127.5,199.6z"/>
	<path class="st1" d="M137.1,199.6h-1.7v-4.7h-4.8v4.7h-1.7v-10.3h1.7v4.2h4.8v-4.2h1.7V199.6z"/>
	<path class="st1" d="M139.8,189.2h1.5v5.4c0,0.6,0,1.1,0,1.7s0,1-0.1,1.2h0.1l5.3-8.2h2v10.3H147v-5.3c0-0.8,0-1.8,0.1-3h-0.1
		l-5.3,8.3h-2V189.2z"/>
</g>
<g class="st2">
	<path class="st1" d="M43.8,109c0,1.8-0.4,3.7-1.3,5.6c-0.4-1-1.2-1.8-2.5-2.6c-1.3-0.8-2.8-1.2-4.7-1.2c-3.6,0-6.2,0.7-7.8,2.2
		c-1.6,1.4-2.4,4-2.4,7.7c0,2.5,0.9,4.4,2.6,5.7c1.8,1.3,3.9,1.9,6.4,1.9c0.9,0,1.7-0.1,2.6-0.2c0.9-0.1,1.6-0.4,2.3-0.7
		c0.7-0.3,1.2-0.8,1.6-1.3c0.4-0.6,0.6-1.3,0.6-2.2c0-1.3-1-2.4-3-3.2c1.2-0.3,2-0.4,2.6-0.4c2,0,3.7,0.7,4.9,2.1
		c1.2,1.4,1.9,3.4,1.9,6.1c-1.2,6.2-4.7,9.3-10.4,9.3c-2.8,0-5.1-0.4-7-1.2s-3.5-1.9-4.6-3.4c-1.2-1.5-2-3.3-2.6-5.4
		c-0.5-2.1-0.8-4.5-0.8-7.2c0-1.1,0.1-2.4,0.2-3.8c0.1-1.4,0.3-2.8,0.4-4.2c0.2-1.4,0.4-2.7,0.8-4c0.3-1.3,0.7-2.4,1.1-3.4
		c0.5-0.6,1.1-1.2,2-1.8c0.8-0.5,1.7-1,2.6-1.4c0.9-0.4,1.9-0.7,2.9-1c1-0.2,1.9-0.4,2.7-0.4c2,0,3.8,0.3,5.4,1
		c1.5,0.6,2.5,1.5,2.8,2.5C43.5,106.1,43.8,107.6,43.8,109z"/>
	<path class="st1" d="M63.1,125.3l3.5-2.5v5.4c0,1.5,0.5,2.8,1.6,3.9c0.4,0.4,1,0.6,1.7,0.6c1.4,0,3-0.3,4.8-0.8
		c1.7-0.5,3.5-1.3,5.4-2.4c-0.3,3.1-1.4,5.3-3.4,6.5c-2,1.2-4.5,1.9-7.5,1.9h-0.3c-0.8,0-1.5,0-2.2-0.1c-0.7-0.1-1.3-0.3-1.9-0.6
		s-1-0.9-1.4-1.6s-0.7-1.7-0.9-3c-0.6,0.7-1.2,1.3-1.8,1.9c-0.6,0.6-1.3,1.1-2,1.6c-1,0.9-2.3,1.3-4,1.3c-1.2,0-2-0.3-2.6-0.9
		c-0.6-0.6-0.9-1.7-0.9-3.2c0-2.1,0.7-4,2-5.8c2-2.8,4.4-4.5,7.3-5.1C62.1,122.5,63.1,123.5,63.1,125.3z M61.6,128.7
		c0.5-0.7,0.7-1.3,0.7-1.8c0-0.6-0.3-0.9-0.9-0.9c-0.4,0-0.9,0.1-1.5,0.4c-0.5,0.1-1,0.4-1.6,0.8c-0.6,0.4-1.2,0.9-1.7,1.5
		c-0.5,0.6-0.9,1.2-1.3,1.9c-0.4,0.7-0.6,1.3-0.6,1.9c0.1,0.4,0.4,0.6,0.8,0.6c0.3,0,0.6-0.1,0.9-0.2
		C58,132.3,59.7,130.9,61.6,128.7z"/>
	<path class="st1" d="M86.1,125.9c-0.1,0.5-0.2,0.9-0.2,1.1v1c0,0.6,0.2,1,0.6,1c0.6-0.6,1.2-1.3,1.8-2c0.6-0.7,1.3-1.4,2.1-2.2
		c0.6-0.7,1.3-1.5,2.2-2.2c0.9-0.7,1.7-1.1,2.5-1.1c0.7,0,1.3,0.2,1.5,0.6c0.3,0.4,0.4,1,0.4,1.9v7.2c0.1,0.7,0.2,1.2,0.5,1.4
		c0.3,0.2,0.8,0.2,1.4,0.2h1.5c2.2,0,4.4-0.2,6.4-0.7c2-0.5,4-1.3,5.8-2.4c-0.1,0.9-0.2,1.6-0.4,2.2c-0.1,0.5-0.5,1.2-1,1.9
		c-0.6,0.9-1.3,1.6-2.2,2.1c-0.9,0.5-1.8,0.9-2.8,1.1c-1,0.2-2,0.4-3,0.5s-2,0.1-2.9,0.1c-0.5,0-1.2-0.1-2-0.2
		c-0.8-0.1-1.6-0.3-2.3-0.6s-1.3-0.8-1.9-1.3c-0.5-0.6-0.8-1.3-0.8-2.2c0-0.2,0-0.4,0.1-0.7c0.1-0.3,0.1-1,0.2-2v-0.2
		c0-0.3-0.1-0.7-0.3-1.2c-0.4,0-1,0.4-1.6,1.2c-0.4,0.4-0.9,1.1-1.7,2c-0.7,0.9-1.7,2.1-2.8,3.5c-0.6,0.7-1.5,1.1-2.6,1.1
		c-0.5-0.4-0.9-0.7-1.3-1s-0.6-0.7-0.6-1.1l0.6-13.5l4.8-4.3L86.1,125.9z M102.8,123.5c-0.3-0.4-0.5-0.8-0.5-1.2
		c0-0.4,0.2-0.7,0.5-1c0.2-0.2,0.3-0.3,0.5-0.3c0.2-0.1,0.3-0.1,0.6-0.2c0.4,0.1,0.8,0.2,1,0.5c0.3,0.3,0.5,0.6,0.5,1
		c0,0.4-0.2,0.8-0.5,1.2c-0.4,0.2-0.7,0.3-1,0.3h-0.2C103.4,123.8,103.1,123.7,102.8,123.5z"/>
	<path class="st1" d="M122.5,119.7c1,0,1.7,0.3,2,1c0.3,0.7,0.5,1.4,0.5,2.2c0,0.7-0.2,1.5-0.6,2.3c-0.4,0.9-0.8,1.7-1.2,2.5
		c-0.5,0.8-0.9,1.6-1.2,2.4c-0.4,0.7-0.6,1.4-0.6,1.8c0,0.6,0.1,1,0.3,1.2c0.2,0.2,0.5,0.3,0.8,0.3c2,0,4.1-0.2,6.3-0.7
		c2.2-0.5,3.8-1.4,5.1-2.6v0.5c0,1.8-0.5,3.1-1.5,4.1s-2.2,1.7-3.6,2.2c-1.4,0.5-3,0.8-4.7,0.9c-1.7,0.1-3.2,0.2-4.7,0.2
		c-0.9,0-1.7,0-2.3-0.1c-0.6-0.1-1.1-0.3-1.5-0.8c-0.4-0.4-0.7-1-0.9-1.9c-0.2-0.8-0.3-2-0.3-3.6c0-2.6,0.7-4.8,2.1-6.9
		c1.4-2,3.1-3.6,5.1-4.8C122.1,119.7,122.4,119.7,122.5,119.7z M118.3,130.8c0.2,0.1,0.3,0.2,0.3,0.2c0.2,0,0.4-0.2,0.7-0.6
		s0.6-0.9,0.9-1.4c0.3-0.6,0.5-1.1,0.8-1.7c0.2-0.6,0.3-1.1,0.3-1.5c0-0.6-0.3-1-0.8-1c-0.5,0-0.9,0.2-1.2,0.6
		c-0.3,0.4-0.5,0.8-0.7,1.4c-0.2,0.6-0.3,1.1-0.4,1.8c-0.1,0.6-0.1,1.2-0.2,1.6C118.1,130.5,118.2,130.7,118.3,130.8z"/>
	<path class="st1" d="M144.1,122.7c1.1-0.6,2.1-1,3-1c1,0,1.8,0.2,2.5,0.6s1.2,0.9,1.6,1.6c0.4,0.7,0.7,1.4,0.9,2.3
		c0.2,0.9,0.3,1.7,0.3,2.6c0,0.8-0.1,1.7-0.4,2.7c-0.3,1-0.7,1.9-1.2,2.8c-0.5,0.9-1.1,1.6-1.8,2.1c-0.7,0.6-1.5,0.8-2.4,0.8
		c-0.9,0-1.8-0.4-2.7-1.3c-1-0.9-1.7-1.8-2.3-2.7l1.3-1.4c1.2,0.5,2.3,0.9,3.2,1c0.9,0.2,1.4,0.2,1.6,0.2c0.7,0,1.3-0.4,1.8-1.2
		c0.5-0.8,0.7-1.6,0.7-2.5c0-1.1-0.3-1.9-0.9-2.6c-0.6-0.7-1.3-1-2.1-1c-0.6,0-1.4,0.3-2.2,0.9c-0.8,0.6-1.5,1.3-2.2,2.2
		c-0.7,0.9-1.2,1.7-1.7,2.6c-0.5,0.9-0.7,1.6-0.7,2.2c-0.7,4.3-0.3,3.3-0.9,7c-0.6,3.7-1.4,7-2.4,9.8c-1,2.8-2.4,5-4.1,6.6
		c-1.7,1.6-4,2.4-7,2.4c-2.9,0-5.1-0.7-6.7-2c-1.6-1.3-2.4-3.3-2.4-5.8c0-1.1,0.2-2.1,0.5-2.9c0.2,0.8,0.6,1.5,1.2,2.2
		c0.6,0.7,1.3,1.3,2.1,1.8c0.8,0.5,1.7,0.9,2.6,1.2c0.9,0.3,1.8,0.4,2.8,0.4c1.8,0,3.4-0.4,4.6-1.2c1.3-0.8,2.5-1.8,3.2-3.2
		c1.3-2.9,2.4-6.1,2.5-9.3c0.1-1.5,0.1-2.8,0.1-3.9v-16.5l5.3,4.2C142.2,123.9,143.1,123.3,144.1,122.7z"/>
	<path class="st1" d="M167.2,125.3l3.5-2.5v5.4c0,1.5,0.5,2.8,1.6,3.9c0.4,0.4,1,0.6,1.7,0.6c1.4,0,3-0.3,4.8-0.8
		c1.7-0.5,3.5-1.3,5.4-2.4c-0.3,3.1-1.4,5.3-3.4,6.5c-2,1.2-4.5,1.9-7.5,1.9h-0.3c-0.8,0-1.5,0-2.2-0.1c-0.7-0.1-1.3-0.3-1.9-0.6
		s-1-0.9-1.4-1.6s-0.7-1.7-0.9-3c-0.6,0.7-1.2,1.3-1.8,1.9c-0.6,0.6-1.3,1.1-2,1.6c-1,0.9-2.3,1.3-4,1.3c-1.2,0-2-0.3-2.6-0.9
		c-0.6-0.6-0.9-1.7-0.9-3.2c0-2.1,0.7-4,2-5.8c2-2.8,4.4-4.5,7.3-5.1C166.2,122.5,167.2,123.5,167.2,125.3z M165.7,128.7
		c0.5-0.7,0.7-1.3,0.7-1.8c0-0.6-0.3-0.9-0.9-0.9c-0.4,0-0.9,0.1-1.5,0.4c-0.5,0.1-1,0.4-1.6,0.8c-0.6,0.4-1.2,0.9-1.7,1.5
		c-0.5,0.6-0.9,1.2-1.3,1.9c-0.4,0.7-0.6,1.3-0.6,1.9c0.1,0.4,0.4,0.6,0.8,0.6c0.3,0,0.6-0.1,0.9-0.2
		C162.1,132.3,163.8,130.9,165.7,128.7z"/>
	<path class="st1" d="M197.3,100.7c0.9,1.5,1.4,3.6,1.4,6.2c0,1.5-0.2,3.2-0.5,5.1c-0.3,1.9-0.9,3.6-1.8,5.2l-0.2,0.4
		c-0.3,0.6-0.7,1.4-1.2,2.4c-0.5,1-0.9,2-1.4,3.1c-0.4,1.1-0.8,2.1-1.1,3.2c-0.3,1.1-0.5,2-0.5,2.7c0,1.1,0.2,2,0.7,2.8
		c0.5,0.7,1,1.1,1.7,1.1c0.7,0,1.2-0.4,1.5-1.1c0.3-0.7,0.4-1.4,0.4-2c0-0.6-0.3-1.4-0.8-2.2c-0.5-0.8-1.1-1.5-1.8-2.2l1.4-3.1
		l4.2,2.8l2.4-1.8c0.2,0.4,0.3,0.7,0.6,1c0.2,0.3,0.3,0.6,0.3,1c0,0.3-0.1,0.6-0.3,1c-0.2,0.4-0.3,0.7-0.3,0.8c-1,0.3-1.6,0.6-2,1.1
		c-0.3,0.5-0.5,1.3-0.5,2.6c0,0.7-0.1,1.5-0.3,2.4c-0.2,0.8-0.5,1.6-1,2.3c-0.5,0.7-1,1.3-1.7,1.7c-0.7,0.5-1.5,0.7-2.5,0.7
		c-0.4,0-0.9-0.1-1.3-0.2c-0.4-0.1-0.9-0.4-1.3-0.9c-0.5-0.5-0.9-1.1-1.3-2.1c-0.4-0.9-0.8-2.2-1.2-3.8l-3.2,0.5
		c0.7-0.8,1.2-1.6,1.5-2.3c0.3-0.7,0.7-1.8,1.2-3.3c0.3-0.9,0.5-1.9,0.7-3.2c0.2-1.2,0.4-2.6,0.5-4c0.2-1.4,0.3-2.8,0.5-4.2
		c0.2-1.4,0.4-2.7,0.7-3.8c0.2-0.9,0.5-1.9,0.9-3c0.4-1.2,0.9-2.3,1.4-3.3c0.5-1,1.1-1.9,1.7-2.6c0.6-0.7,1.3-1.1,1.9-1.1
		L197.3,100.7z M193.4,109.3c-0.2,0.4-0.4,1.1-0.5,2.2c-0.1,1-0.3,2.1-0.4,3.2c-0.1,1.1-0.2,2.3-0.3,3.4c-0.1,1.1-0.1,2-0.2,2.6
		c0.4,0,0.8-0.5,1.2-1.4c0.5-1,0.9-2.1,1.2-3.3c0.3-1.2,0.6-2.5,0.9-3.6c0.2-1.2,0.4-2,0.4-2.5c0-1.2-0.3-1.8-1-2
		C194.2,107.9,193.8,108.4,193.4,109.3z"/>
	<path class="st1" d="M211.5,95.6l-2.7,35.1c0.1,1,0.4,1.4,1.1,1.4c1,0,1.8-0.5,2.6-1.5c0.8-1,1.5-2.2,2-3.6
		c0.6-1.4,1.1-2.7,1.5-4.1c0.4-1.4,0.8-2.5,1.1-3.3c0.2-0.2,0.5-0.3,1-0.3c0.3,0,0.4,0.3,0.4,1c-0.9,3.9-1.3,6.7-1.3,8.1
		c0,1.2,0.4,2.3,1.1,3.2c0.7,0.9,1.5,1.4,2.4,1.4c1.9,0,3.8-0.2,5.8-0.7c2-0.5,3.8-1.2,5.3-2.4l-0.1,0.6c-0.2,1-0.4,1.8-0.7,2.4
		c-0.3,0.6-1.1,1.4-2.4,2.3c-2.3,1.2-5,1.8-7.9,1.8c-0.7,0-1.4,0-1.9-0.1c-0.5-0.1-1-0.2-1.4-0.6s-0.8-0.8-1.2-1.4
		c-0.4-0.6-0.8-1.5-1.2-2.7c-2.4,3.4-4.3,5.1-5.6,5.1c-0.6,0-1.1-0.3-1.5-0.8c-0.4-0.5-0.8-1.1-1.1-1.9c-0.3-0.8-0.5-1.6-0.6-2.6
		c-0.1-1-0.2-2-0.2-2.9V99.1l2.9-3.4H211.5z"/>
</g>
</svg>
