<?xml version="1.0" encoding="utf-8"?>
<!-- Generator: Adobe Illustrator 16.0.0, SVG Export Plug-In . SVG Version: 6.00 Build 0)  -->
<!DOCTYPE svg PUBLIC "-//W3C//DTD SVG 1.0//EN" "http://www.w3.org/TR/2001/REC-SVG-20010904/DTD/svg10.dtd">
<svg version="1.0" id="Слой_1" xmlns="http://www.w3.org/2000/svg" xmlns:xlink="http://www.w3.org/1999/xlink" x="0px" y="0px"
	 width="35.083px" height="35.083px" viewBox="0 0 35.083 35.083" enable-background="new 0 0 35.083 35.083" xml:space="preserve">
<path fill="#f18217" d="M17.542,0C7.854,0,0,7.854,0,17.541c0,9.688,7.854,17.542,17.542,17.542c9.688,0,17.541-7.854,17.541-17.542
	C35.083,7.854,27.229,0,17.542,0z M21.996,15.967l-0.144,1.575h-2.975c0,4.483,0,10.018,0,10.018h-4.01c0,0,0-5.479,0-10.018h-2.003
	v-1.589v-2.417h1.989v-1.814c0-1.638,0.778-4.198,4.218-4.198l3.093,0.014v3.434c0,0-1.883,0-2.246,0
	c-0.368,0-0.889,0.18-0.889,0.963v1.602h3.187L21.996,15.967z"/>
</svg>
