<svg id="inst" xmlns="http://www.w3.org/2000/svg" width="35" height="35" viewBox="0 0 35 35">
  <metadata><?xpacket begin="﻿" id="W5M0MpCehiHzreSzNTczkc9d"?>
<x:xmpmeta xmlns:x="adobe:ns:meta/" x:xmptk="Adobe XMP Core 5.6-c140 79.160451, 2017/05/06-01:08:21 ">
   <rdf:RDF xmlns:rdf="http://www.w3.org/1999/02/22-rdf-syntax-ns#">
      <rdf:Description rdf:about=""/>
   </rdf:RDF>
</x:xmpmeta>                        
<?xpacket end="w"?></metadata>
<defs>
    <style>
      .cls-1 {
        fill: #f18217;
      }

      .cls-2 {
        fill: #fff;
        fill-rule: evenodd;
      }
    </style>
  </defs>
  <circle class="cls-1" cx="17.5" cy="17.5" r="17.5"/>
  <path class="cls-2" d="M1360.33,5485h-9.66a5.685,5.685,0,0,1-5.67-5.67v-9.66a5.685,5.685,0,0,1,5.67-5.67h9.66a5.685,5.685,0,0,1,5.67,5.67v9.66A5.685,5.685,0,0,1,1360.33,5485Zm-9.66-19.3a3.973,3.973,0,0,0-3.97,3.97v9.66a3.973,3.973,0,0,0,3.97,3.97h9.66a3.973,3.973,0,0,0,3.97-3.97v-9.66a3.973,3.973,0,0,0-3.97-3.97h-9.66Zm4.86,13.47a4.655,4.655,0,0,1-2.79-.93,4.7,4.7,0,0,1-.98-6.59,4.667,4.667,0,0,1,3.09-1.85,4.561,4.561,0,0,1,1.38,0,4.717,4.717,0,0,1,3.97,3.97h0a4.727,4.727,0,0,1-3.97,5.35A5.492,5.492,0,0,1,1355.53,5479.17Zm0.01-7.72a3.253,3.253,0,0,0-.44.03,3.01,3.01,0,0,0-1.35,5.4,2.965,2.965,0,0,0,2.23.56,3.011,3.011,0,0,0,2.54-3.42,2.97,2.97,0,0,0-2.54-2.54A3.145,3.145,0,0,0,1355.54,5471.45Zm5.27-1.41a0.857,0.857,0,0,1-.6-0.25,0.839,0.839,0,0,1-.25-0.6A0.849,0.849,0,1,1,1360.81,5470.04Z" transform="translate(-1338 -5457)"/>
</svg>