<?xml version="1.0" encoding="utf-8"?>
<!-- Generator: Adobe Illustrator 16.0.0, SVG Export Plug-In . SVG Version: 6.00 Build 0)  -->
<!DOCTYPE svg PUBLIC "-//W3C//DTD SVG 1.0//EN" "http://www.w3.org/TR/2001/REC-SVG-20010904/DTD/svg10.dtd">
<svg version="1.0" id="Слой_1" xmlns="http://www.w3.org/2000/svg" xmlns:xlink="http://www.w3.org/1999/xlink" x="0px" y="0px"
	 width="35.083px" height="35.083px" viewBox="0 0 35.083 35.083" enable-background="new 0 0 35.083 35.083" xml:space="preserve">
<g display="none">
	<path display="inline" fill-rule="evenodd" clip-rule="evenodd" d="M18.971,13.175v-1.602c0-0.783,0.521-0.963,0.889-0.963
		c0.363,0,2.246,0,2.246,0V7.177l-3.093-0.014c-3.439,0-4.218,2.56-4.218,4.198v1.814h-1.989v2.417v1.589h2.003
		c0,4.539,0,10.018,0,10.018h4.01c0,0,0-5.534,0-10.018h2.975l0.144-1.575l0.221-2.432H18.971z"/>
</g>
<path id="vk_x5F_alt" display="none" fill-rule="evenodd" clip-rule="evenodd" d="M17.364,23.784h1.319c0,0,0.398-0.043,0.602-0.264
	c0.188-0.2,0.182-0.578,0.182-0.578s-0.026-1.77,0.795-2.03c0.811-0.257,1.85,1.71,2.951,2.467c0.834,0.572,1.467,0.446,1.467,0.446
	l2.947-0.041c0,0,1.541-0.096,0.811-1.307c-0.061-0.1-0.426-0.897-2.191-2.535c-1.848-1.715-1.601-1.438,0.625-4.404
	c1.356-1.806,1.898-2.909,1.729-3.381c-0.161-0.45-1.158-0.332-1.158-0.332l-3.318,0.021c0,0-0.245-0.034-0.428,0.075
	c-0.179,0.106-0.293,0.355-0.293,0.355s-0.525,1.398-1.226,2.587c-1.478,2.509-2.068,2.642-2.31,2.485
	c-0.562-0.363-0.421-1.458-0.421-2.236c0-2.432,0.368-3.445-0.719-3.707c-0.36-0.087-0.626-0.145-1.548-0.154
	c-1.184-0.012-2.186,0.004-2.753,0.282c-0.377,0.185-0.669,0.596-0.492,0.62c0.22,0.029,0.716,0.134,0.979,0.492
	c0.34,0.463,0.328,1.501,0.328,1.501s0.195,2.861-0.457,3.217c-0.447,0.244-1.061-0.253-2.378-2.529
	c-0.674-1.166-1.184-2.454-1.184-2.454s-0.098-0.241-0.273-0.37c-0.212-0.156-0.51-0.205-0.51-0.205l-3.153,0.02
	c0,0-0.473,0.014-0.647,0.22c-0.155,0.183-0.013,0.562-0.013,0.562s2.468,5.774,5.263,8.685
	C14.455,23.96,17.364,23.784,17.364,23.784L17.364,23.784L17.364,23.784z"/>
<g>
	<path fill="#E95456" d="M23.27,17.541c0,3.164-2.564,5.729-5.729,5.729c-3.163,0-5.728-2.564-5.728-5.729
		c0-0.495,0.07-0.975,0.188-1.433H10.38v7.877c0,0.395,0.321,0.716,0.717,0.716h12.889c0.396,0,0.716-0.321,0.716-0.716v-7.877
		h-1.621C23.199,16.566,23.27,17.046,23.27,17.541z"/>
	<path fill="#E95456" d="M23.986,10.38h-2.147c-0.396,0-0.717,0.321-0.717,0.716v2.149c0,0.395,0.32,0.716,0.717,0.716h2.147
		c0.396,0,0.716-0.321,0.716-0.716v-2.149C24.702,10.701,24.382,10.38,23.986,10.38z"/>
	<circle fill="#E95456" cx="17.541" cy="17.541" r="3.58"/>
	<path fill="#E95456" d="M17.542,0C7.854,0,0,7.854,0,17.541c0,9.688,7.854,17.542,17.542,17.542
		c9.688,0,17.541-7.854,17.541-17.542C35.083,7.854,27.229,0,17.542,0z M26.85,24.701c0,1.187-0.961,2.148-2.147,2.148H10.38
		c-1.186,0-2.147-0.962-2.147-2.148V10.38c0-1.186,0.962-2.147,2.147-2.147h14.322c1.187,0,2.147,0.961,2.147,2.147V24.701z"/>
</g>
</svg>
