<?xml version="1.0" encoding="utf-8"?>
<!-- Generator: Adobe Illustrator 16.0.0, SVG Export Plug-In . SVG Version: 6.00 Build 0)  -->
<!DOCTYPE svg PUBLIC "-//W3C//DTD SVG 1.0//EN" "http://www.w3.org/TR/2001/REC-SVG-20010904/DTD/svg10.dtd">
<svg version="1.0" id="Слой_1" xmlns="http://www.w3.org/2000/svg" xmlns:xlink="http://www.w3.org/1999/xlink" x="0px" y="0px"
	 width="35.083px" height="35.083px" viewBox="0 0 35.083 35.083" enable-background="new 0 0 35.083 35.083" xml:space="preserve">
<path fill="#E95456" d="M17.542,0C7.854,0,0,7.854,0,17.541c0,9.688,7.854,17.542,17.542,17.542s17.542-7.854,17.542-17.542
	C35.083,7.854,27.229,0,17.542,0z M13.55,25.562H9.804V13.511h3.746V25.562z M11.678,11.863c-1.201,0-2.172-0.973-2.172-2.172
	c0-1.198,0.971-2.171,2.172-2.171c1.198,0,2.17,0.973,2.17,2.171C13.848,10.891,12.875,11.863,11.678,11.863z M27.577,25.562h-3.742
	v-5.86c0-1.398-0.026-3.195-1.946-3.195c-1.948,0-2.248,1.522-2.248,3.095v5.961h-3.742V13.511h3.593v1.647h0.05
	c0.5-0.948,1.723-1.947,3.544-1.947c3.793,0,4.492,2.496,4.492,5.74V25.562z"/>
</svg>
