<?xml version="1.0" encoding="utf-8"?>
<!-- Generator: Adobe Illustrator 16.0.0, SVG Export Plug-In . SVG Version: 6.00 Build 0)  -->
<!DOCTYPE svg PUBLIC "-//W3C//DTD SVG 1.0//EN" "http://www.w3.org/TR/2001/REC-SVG-20010904/DTD/svg10.dtd">
<svg version="1.0" id="Слой_1" xmlns="http://www.w3.org/2000/svg" xmlns:xlink="http://www.w3.org/1999/xlink" x="0px" y="0px"
	 width="35.083px" height="35.083px" viewBox="0 0 35.083 35.083" enable-background="new 0 0 35.083 35.083" xml:space="preserve">
<path fill="#E95456" d="M17.542,0C7.854,0,0,7.854,0,17.542s7.854,17.542,17.542,17.542c9.688,0,17.542-7.854,17.542-17.542
	S27.23,0,17.542,0z M25.999,13.204c0.009,0.187,0.014,0.375,0.014,0.564c0,5.767-4.39,12.416-12.416,12.416
	c-2.464,0-4.758-0.723-6.689-1.959c0.341,0.039,0.689,0.061,1.041,0.061c2.044,0,3.926-0.697,5.419-1.867
	c-1.91-0.037-3.521-1.299-4.076-3.031c0.267,0.051,0.54,0.078,0.821,0.078c0.398,0,0.783-0.053,1.15-0.154
	c-1.996-0.4-3.5-2.164-3.5-4.278c0-0.019,0-0.037,0-0.055c0.588,0.326,1.261,0.522,1.977,0.545
	c-1.171-0.782-1.941-2.118-1.941-3.632c0-0.8,0.215-1.549,0.591-2.194c2.152,2.641,5.368,4.378,8.995,4.56
	c-0.075-0.319-0.113-0.653-0.113-0.995c0-2.409,1.954-4.363,4.363-4.363c1.256,0,2.39,0.529,3.186,1.378
	c0.994-0.196,1.928-0.56,2.771-1.059c-0.326,1.019-1.019,1.874-1.919,2.414c0.883-0.105,1.724-0.339,2.506-0.687
	C27.591,11.82,26.851,12.588,25.999,13.204z"/>
</svg>
