<?xml version="1.0" encoding="utf-8"?>
<!-- Generator: Adobe Illustrator 16.0.0, SVG Export Plug-In . SVG Version: 6.00 Build 0)  -->
<!DOCTYPE svg PUBLIC "-//W3C//DTD SVG 1.0//EN" "http://www.w3.org/TR/2001/REC-SVG-20010904/DTD/svg10.dtd">
<svg version="1.0" id="Слой_1" xmlns="http://www.w3.org/2000/svg" xmlns:xlink="http://www.w3.org/1999/xlink" x="0px" y="0px"
	 width="35.083px" height="35.083px" viewBox="0 0 35.083 35.083" enable-background="new 0 0 35.083 35.083" xml:space="preserve">
<g display="none">
	<path display="inline" fill-rule="evenodd" clip-rule="evenodd" d="M18.53,13.173v-1.602c0-0.783,0.521-0.963,0.889-0.963
		c0.363,0,2.246,0,2.246,0V7.175l-3.093-0.014c-3.439,0-4.218,2.56-4.218,4.198v1.814h-1.989v2.417v1.589h2.003
		c0,4.539,0,10.018,0,10.018h4.01c0,0,0-5.534,0-10.018h2.975l0.144-1.575l0.221-2.432H18.53z"/>
</g>
<path fill="#f18217" d="M17.542,0C7.854,0,0,7.854,0,17.541c0,9.688,7.854,17.542,17.542,17.542c9.688,0,17.541-7.854,17.541-17.542
	C35.083,7.854,27.229,0,17.542,0z M25.187,19.94c1.766,1.638,2.131,2.436,2.191,2.535c0.73,1.211-0.811,1.307-0.811,1.307
	l-2.947,0.041c0,0-0.633,0.126-1.467-0.446c-1.102-0.757-2.141-2.724-2.951-2.467c-0.821,0.261-0.795,2.03-0.795,2.03
	s0.006,0.378-0.182,0.578c-0.203,0.221-0.602,0.264-0.602,0.264h-1.319c0,0-2.91,0.176-5.473-2.493
	c-2.795-2.91-5.263-8.685-5.263-8.685s-0.142-0.379,0.013-0.562c0.174-0.206,0.647-0.22,0.647-0.22l3.153-0.02
	c0,0,0.297,0.049,0.51,0.205c0.175,0.129,0.273,0.37,0.273,0.37s0.51,1.288,1.184,2.454c1.317,2.276,1.931,2.773,2.378,2.529
	c0.652-0.355,0.457-3.217,0.457-3.217s0.012-1.038-0.328-1.501c-0.264-0.358-0.76-0.463-0.979-0.492
	c-0.177-0.024,0.114-0.436,0.492-0.62c0.567-0.278,1.569-0.294,2.752-0.282c0.923,0.01,1.188,0.067,1.549,0.154
	c1.087,0.262,0.719,1.275,0.719,3.707c0,0.778-0.141,1.873,0.421,2.236c0.241,0.156,0.832,0.023,2.31-2.485
	c0.7-1.188,1.226-2.587,1.226-2.587s0.114-0.249,0.293-0.355c0.183-0.109,0.428-0.075,0.428-0.075l3.318-0.021
	c0,0,0.997-0.118,1.158,0.332c0.17,0.472-0.372,1.575-1.729,3.381C23.586,18.503,23.339,18.226,25.187,19.94z"/>
</svg>
